<?xml version="1.0" encoding="UTF-8"?>
<!DOCTYPE svg PUBLIC "-//W3C//DTD SVG 1.1//EN" "http://www.w3.org/Graphics/SVG/1.1/DTD/svg11.dtd">
<!-- Creator: CorelDRAW 2019 (64 Bit) -->
<svg xmlns="http://www.w3.org/2000/svg" xml:space="preserve" width="1708px" height="1681px" version="1.1" style="shape-rendering:geometricPrecision; text-rendering:geometricPrecision; image-rendering:optimizeQuality; fill-rule:evenodd; clip-rule:evenodd"
viewBox="0 0 1616.79 1590.83"
 xmlns:xlink="http://www.w3.org/1999/xlink">
 <defs>
  <style type="text/css">
   <![CDATA[
    .str0 {stroke:#2F2F2F;stroke-width:5.92;stroke-linejoin:round;stroke-miterlimit:2.61313}
    .str2 {stroke:#2F2F2F;stroke-width:5.92;stroke-linecap:round;stroke-linejoin:round;stroke-miterlimit:10}
    .str1 {stroke:white;stroke-width:5.92;stroke-linecap:round;stroke-linejoin:round;stroke-miterlimit:10}
    .fil4 {fill:none;fill-rule:nonzero}
    .fil0 {fill:#00826E;fill-rule:nonzero}
    .fil1 {fill:#2F2F2F;fill-rule:nonzero}
    .fil6 {fill:#D48983;fill-rule:nonzero}
    .fil5 {fill:#F45470;fill-rule:nonzero}
    .fil7 {fill:#FF95FB;fill-rule:nonzero}
    .fil2 {fill:#FFCCCC;fill-rule:nonzero}
    .fil3 {fill:white;fill-rule:nonzero}
   ]]>
  </style>
 </defs>
 <g id="Character_x0020_part_x0020_2">
  <metadata id="CorelCorpID_0Corel-Layer"/>
  <g id="_2089307592768">
   <g>
    <path class="fil0 str0" d="M2.96 137.99c0,-74.58 213.37,-135.03 476.58,-135.03 263.21,0 476.59,60.45 476.59,135.03 0,74.57 -213.38,135.03 -476.59,135.03 -263.21,0 -476.58,-60.46 -476.58,-135.03z"/>
    <path class="fil1" d="M937.62 100.61c-57.22,-56.39 -240.63,-97.65 -458.08,-97.65 -217.44,0 -400.86,41.26 -458.07,97.65 57.21,56.4 240.63,97.66 458.07,97.66 217.45,0 400.86,-41.26 458.08,-97.66z"/>
   </g>
   <g>
    <g>
     <path class="fil2" d="M831.36 46.89c-9.81,34.23 -22.21,72.98 -37.84,117.9 -6.41,18.43 -13.36,37.87 -20.86,58.49 -20.7,56.68 -78.81,156.4 -158.79,213.63 -82.96,59.37 -419.46,245.19 -419.46,245.19l-45.51 -127.94c0,0 156.85,-159.75 232.86,-234.11 82.33,-80.53 170.43,-116.3 170.43,-116.3l0.26 -7.08 7.12 -191.85c106.92,5.12 201.69,20.37 271.79,42.07z"/>
     <g>
      <path class="fil3 str0" d="M111.33 478.78c-33.28,4.83 -50.01,32.68 -55.57,49.45 -16.45,49.71 -12.35,99.88 -24.74,150.52 -10.19,41.67 -23.7,77.2 -19.52,118.34 5.81,57.07 36.25,95.12 81.57,103.68l91.37 -391.32c-21.57,-22.41 -39.83,-35.51 -73.11,-30.67z"/>
      <path class="fil1" d="M246.6 546.1c14.35,20.39 12.31,57.34 9.65,80.8 -2.1,18.44 -28.63,45.87 -37.13,62.37 -7.8,15.16 -24.9,58.66 -29.49,78.2 -5.19,22.08 -15.72,65.27 -25.94,96.54 -14.93,45.61 -50.8,48.57 -77.5,36.76 -26.69,-11.81 -51.76,-59.19 -50.87,-115.18 0.86,-54.89 22.27,-92.98 30.46,-128.52 10.31,-44.66 0.33,-56.77 7.74,-90.22 7.4,-33.45 20.68,-61.35 59.03,-68.82 32.16,-6.26 67.67,13.64 93.86,30.46 7.33,4.71 14.55,9.93 19.72,16.96 0.15,0.21 0.31,0.43 0.47,0.65z"/>
      <g>
       <path class="fil4 str1" d="M100.84 773.06c21.6,18.62 55.6,31.76 83.6,25.73"/>
       <path class="fil4 str1" d="M112.03 731.79c20.75,19.55 54.15,34.18 82.38,29.38"/>
       <path class="fil4 str1" d="M128.5 685.78c18.93,21.33 50.88,38.88 79.43,36.63"/>
      </g>
     </g>
     <g>
      <path class="fil5" d="M842.38 50.45c-9.51,36.33 -20.36,73.41 -33.23,110.32 -20.32,58.7 -45.62,116.98 -77.97,170.94 -59.45,99.13 -246.25,193.66 -434.46,303.81 -1.12,19.1 -0.81,40.55 -24.72,53.75 -11.56,6.39 -28.02,6.93 -28.02,6.93 -7.14,11.75 -19.56,22.23 -33.17,20.32 -10.76,-1.51 -38.58,-6.11 -61.91,-30.36 -23.33,-24.24 -41.1,-76.57 -20.94,-141.48 4.77,-15.37 22.59,-50.51 31.42,-61.62 7.95,-10.01 22.93,-17.78 35.68,-10.56 15.59,-38.22 46.47,-28.87 46.47,-28.87 129.75,-138.63 212.7,-212.5 300.32,-243.19l0.08 -3.31 3.9 -192.89c118.27,4.65 222.68,21.62 296.55,46.21z"/>
      <path class="fil4 str2" d="M296.72 635.52c-30.06,14.22 -47.44,24.89 -54.27,24.22 -28.43,-2.81 -53,-44.23 -49.32,-96.54 3.05,-43.34 21.93,-91.51 48.4,-119.57"/>
      <path class="fil4 str2" d="M246.17 697.14c-25.52,1.65 -51.09,-10.2 -67.96,-29.42 -16.87,-19.21 -25.26,-45.15 -25.02,-70.71"/>
     </g>
    </g>
    <g>
     <path class="fil2" d="M734.49 358.91c-12.36,77.22 -112.11,447.73 -112.11,447.73l-158.29 -35.87c0,0 11.44,-117.55 27.04,-205.43 25.35,-142.73 44.19,-240.72 44.19,-240.72 0,0 -10.57,-39.35 -27.7,-119.38 -6.54,-30.66 -15.63,-65.41 -23.26,-98.92 -7.25,-31.89 -12.85,-61.21 -15.65,-93.89l15.85 0c84.09,0 163.1,6.16 231.69,17.01l-1.26 6.03c0,0 13.62,72.78 23.97,151.46 8.63,65.57 1.19,136.87 -4.47,171.98z"/>
     <g>
      <g>
       <path class="fil1" d="M475.25 752.98c0,0 -1.06,53.45 12.5,60.31 13.56,6.86 65.06,-6.32 95.02,-4.53 32.48,1.95 47.43,11.32 38.98,44.03 -8.44,32.71 -10.78,94.5 0.54,137.74 11.32,43.23 37.53,101.03 25.38,129.47 -4.88,11.41 -42.57,17.1 -84.86,-21.52 -35.85,-32.73 -51.19,-71.78 -70.36,-120.43 -19.18,-48.64 -36.32,-76.28 -53.76,-104.82 -17.44,-28.54 -31.05,-41.58 -22.44,-78.76 0,0 55.96,-51.16 62.83,-55.04 6.87,-3.88 10.86,2.28 10.86,2.28l-14.69 11.27z"/>
       <path class="fil3 str0" d="M647.67 1120c-4.88,11.41 -42.23,16.73 -84.86,-21.52 -38.69,-34.7 -51.19,-71.78 -70.36,-120.43 -19.18,-48.64 -36.32,-76.28 -53.76,-104.82 -17.44,-28.54 -31.05,-41.58 -22.44,-78.76l-13.12 8.63c-8.59,5.66 -14,15.11 -14.47,25.39 -1.14,24.68 10.63,37.67 25.01,61.21 17.44,28.53 34.58,56.17 53.76,104.82 19.17,48.64 21.7,80.34 67.53,124.31 41.33,39.64 68.5,34.81 83.42,29.69 26.69,-9.17 29.29,-28.52 29.29,-28.52z"/>
      </g>
      <path class="fil4 str1" d="M560.21 1014.81c25.1,-6.05 57.95,-1.28 71.97,8.47"/>
      <path class="fil4 str1" d="M546.88 964.47c25.1,-6.05 57.95,-1.28 71.97,8.47"/>
      <path class="fil4 str1" d="M536.95 917.24c26.82,-6.46 61.92,-1.36 76.9,9.05"/>
     </g>
     <g>
      <g>
       <path class="fil5" d="M760.01 28.83c-78.69,-16.3 -175.64,-25.89 -280.46,-25.89 -9.77,0 -19.49,0.08 -29.12,0.25 1.67,42.95 8.63,82.96 19.02,120.2 7.16,25.56 14.12,50.62 20.65,74.83 13.46,49.81 32.69,100.22 32,134.79 -32.75,86.37 -34.56,182.55 -42.35,241.54 -9.34,35.77 -20.49,63.16 -22.95,91.58 -1.54,17.79 -2.57,44.91 -2.57,44.91 0,0 8.44,49.98 34.37,61.71 25.94,11.74 150.3,4.5 150.3,4.5 14.41,-29.22 31.37,-46.65 41.5,-81.84 5.56,-19.32 7.52,-48.9 11.48,-83.47 0.21,-0.88 15.35,-62.21 38.85,-172.09 18.34,-85.72 20.64,-122.42 22.23,-156.59 2.06,-44.43 7.21,-232.06 7.05,-254.43z"/>
       <path class="fil4 str2" d="M490.1 198.22c13.46,49.81 32.69,100.22 32,134.79 -32.75,86.37 -34.56,182.55 -42.35,241.54"/>
       <g>
        <path class="fil4 str2" d="M504.21 2.96c5.13,41.02 39.31,196.36 54.4,279 5.09,27.85 2.62,56.49 -6.7,83.22 -14.95,42.89 -21.67,80.95 -27.21,159.23 -7.01,99.09 -23.37,106.31 -33.88,147.01 -6.9,26.71 -6.45,73.05 -6.45,73.05"/>
        <path class="fil4 str2" d="M577.46 4.9c-2.61,7.19 -6.55,13.62 -12.53,18.68 -13.9,11.72 -33.95,11.55 -52.11,10.78"/>
        <path class="fil4 str2" d="M846.37 51.78c-87.42,-29.83 -219.29,-48.82 -366.83,-48.82 -9.77,0 -19.48,0.08 -29.11,0.25"/>
       </g>
       <path class="fil4 str2" d="M759.93 28.83c0.19,22.4 -5.61,194.01 -6.99,254.42"/>
      </g>
      <g>
       <path class="fil5" d="M436.85 749.59c-15.9,4.79 -18.71,28.62 2.8,52.07 25.24,27.5 68.89,36.62 103.94,30.53 44.5,-7.74 77.02,-7.61 80.45,5.46l-2.29 15.14c0,0 13.31,1.1 19.48,-16.29 6.18,-17.39 -0.16,-34.38 5.85,-43.41 6.01,-9.03 13.96,-22.12 7.58,-29.05 -6.38,-6.94 -9.16,-15.11 -58.12,-8.65 -48.96,6.46 -85.9,2.44 -105.41,-7.29 -25.03,-12.49 -30.29,-23.62 -36.9,-37.06 -12.39,0.86 -27.61,21.52 -17.38,38.55z"/>
       <path class="fil4 str2" d="M654.66 764.04c-3.85,-5.91 -9.16,-15.11 -58.12,-8.65 -48.96,6.46 -85.9,2.44 -105.41,-7.29 -25.03,-12.49 -30.29,-23.62 -36.9,-37.06"/>
       <path class="fil4 str2" d="M433.31 744.47c9.57,23.3 28.5,42.59 51.62,52.6"/>
      </g>
     </g>
    </g>
   </g>
  </g>
 </g>
 <g id="Character_x0020_part_x0020_1">
  <metadata id="CorelCorpID_1Corel-Layer"/>
  <g id="_2089305021952">
   <g>
    <path class="fil0 str0" d="M1546.01 1339.76c0,76.32 -218.37,138.19 -487.74,138.19 -269.37,0 -487.74,-61.87 -487.74,-138.19 0,-76.32 218.37,-138.19 487.74,-138.19 269.37,0 487.74,61.87 487.74,138.19z"/>
    <path class="fil1" d="M589.47 1378.01c58.55,57.72 246.26,99.94 468.8,99.94 222.53,0 410.24,-42.22 468.8,-99.94 -58.56,-57.71 -246.27,-99.94 -468.8,-99.94 -222.54,0 -410.25,42.23 -468.8,99.94z"/>
   </g>
   <g>
    <g>
     <path class="fil6" d="M1375.68 693.89c-14.14,57.46 -81.38,107.16 -141.54,92.35 -60.16,-14.81 -92.86,-89.37 -78.71,-146.83 14.14,-57.46 74.38,-92.04 134.54,-77.23 51.95,12.79 91.43,108.64 91.43,108.64 -2.98,12.03 -3.79,15.22 -5.72,23.07z"/>
     <path class="fil1" d="M1352.09 601.33c5.83,-8.59 1.82,-23.97 -4.54,-32.66 -4.62,-6.3 -17.63,-14.09 -24.92,-16.88 -14.7,-5.61 -30.26,-8.94 -44.49,-15.65 -14.23,-6.71 -27.52,-17.72 -31.88,-32.84 -8.46,9.98 -11.02,24.61 -6.46,36.86 -11.32,-6.61 -24.39,-10.18 -37.5,-10.22 -6.39,-0.02 -13.29,1.01 -17.85,5.49 -4.57,4.47 -5.07,13.31 0.41,16.6 -10.73,0.98 -21.81,-2.73 -29.78,-9.99 -0.52,8.4 4.37,16.88 11.88,20.65 -13.79,3.2 -21.41,19.58 -18.89,33.51 2.52,13.93 12.64,25.31 23.82,33.99 28.79,22.37 64.55,22.53 99.33,25.06 21.5,1.57 43.02,2.96 64.55,4.06l45.62 11.53c10.44,-42.15 -9.62,-62.03 -29.3,-69.51z"/>
     <path class="fil2" d="M1345.33 711.58c-10.81,-2.68 -23.28,2.75 -32.7,10.44 -7.97,5.69 -11.28,4.21 -7.5,-11.57 5.14,-22.96 18.27,-37.51 30.64,-51.14 0.44,-13.6 -5.08,-31.43 -17.3,-48.78 -18.71,-0.93 -44.39,5.22 -77.83,-4.12 -41.33,-11.55 -27.91,-41.86 -52.43,-20.77 0,0 -22.5,16.6 -31.56,47.79 -5.93,20.39 -7.58,31.42 -10.85,47.72 -2.69,13.42 -9.02,34.68 -13.67,48.95 -8.63,26.47 -13.99,45.39 -5.72,59 8.27,13.62 36.2,24.45 43.22,26.38l-12.58 39.02 -66.07 6.55c0,0 21.41,71.8 119.29,79.93 97.89,8.12 88.67,-37.69 88.76,-48.45l-24.01 -10.35 6.51 -70.9c10.95,-6.43 18.53,-16.73 22.08,-29.06 3.06,-10.62 6.55,-22.72 7.46,-25.87 7.29,8.13 19.41,11.01 29.94,8.79 11.09,-2.34 22,-10.71 23.71,-25.53 1.44,-12.5 -5.32,-24.54 -19.39,-28.03z"/>
     <path class="fil1" d="M1291.22 648.34c-6.74,-8.15 -12.15,-17.84 -15.91,-28.49 20.44,21.75 46.11,36.63 73.76,42.74 -2.04,-16.61 -6.35,-32.84 -14.7,-46.06 -11.41,-18.09 -31.21,-31.46 -39.64,-35.41 -13.78,-6.46 -28.02,-11.77 -42.57,-15.87 -22.44,-6.33 -52.89,-0.67 -42.4,20.69 7.37,15.02 21.94,30.43 32.61,38.75 12.14,9.48 34.54,19.21 48.85,23.65z"/>
     <g>
      <g>
       <g>
        <path class="fil3" d="M1200.98 676.72c0.24,-7.32 -5.02,-12.92 -11.95,-16.03 -6.93,-3.11 -17.76,-5.06 -23.19,4.25 -0.93,10.98 20.62,22.06 35.14,11.78z"/>
        <path class="fil1" d="M1170.13 666.28c-1.88,4.79 0.64,10.29 5.64,12.29 4.99,2 10.56,-0.26 12.44,-5.04 1.88,-4.79 -0.64,-10.29 -5.63,-12.29 -5,-2 -10.57,0.26 -12.45,5.04z"/>
        <polygon class="fil3" points="1188.86,673.85 1179.17,669.9 1185.92,678.33 "/>
        <path class="fil4 str2" d="M1165.35 662.67c7.04,-5.72 15.83,-4.56 22.76,-1.45 6.93,3.11 12.62,10.19 12.87,15.5"/>
       </g>
       <path class="fil4 str2" d="M1207.91 629.64c-12.79,-2.55 -32.23,0.94 -40.04,10.01"/>
      </g>
      <g>
       <g>
        <path class="fil3" d="M1273.45 698.83c0.24,-7.32 -5.02,-12.92 -11.95,-16.03 -6.93,-3.11 -17.76,-5.06 -23.19,4.25 -0.93,10.98 20.62,22.06 35.14,11.78z"/>
        <path class="fil1" d="M1243 687.54c-2.32,4.58 -0.32,10.3 4.46,12.76 4.78,2.46 10.54,0.73 12.86,-3.85 2.32,-4.59 0.33,-10.3 -4.46,-12.77 -4.78,-2.46 -10.54,-0.73 -12.86,3.86z"/>
        <polygon class="fil3" points="1260.94,696.83 1251.66,691.99 1257.58,701.01 "/>
        <path class="fil4 str2" d="M1237.82 684.78c7.05,-5.72 15.83,-4.56 22.76,-1.45 6.93,3.12 12.62,10.19 12.87,15.5"/>
       </g>
       <path class="fil4 str2" d="M1292.86 675.72c-4.88,-13.05 -20.4,-25.54 -35.22,-27.84"/>
      </g>
      <path class="fil4 str2" d="M1226.72 652.55c-4.36,13.63 -21.84,18.11 -29.29,29.93 -1.92,3.04 -3.46,6.37 -5.92,8.99 -1.95,2.07 -4.38,3.61 -6.46,5.55 -4.39,4.08 -7.07,10.66 -4.8,16.21 2.55,6.24 9.91,8.74 16.42,10.51"/>
      <path class="fil1" d="M1192.85 753.03c-0.75,1.71 -0.74,3.83 -0.24,5.57 0.6,2.08 2.07,3.94 4.05,4.82 1.98,0.87 4.43,0.69 6.16,-0.61 1.3,-0.98 2.11,-2.51 2.49,-4.09 0.4,-1.66 0.48,-3.6 0.15,-5.27 -0.36,-1.78 -1.44,-3.35 -2.55,-4.74 -0.62,-0.77 -1.3,-1.56 -2.2,-1.97 -1.41,-0.63 -3.13,-0.22 -4.34,0.73 -1.6,1.27 -2.17,3.23 -3.18,4.9 -0.13,0.21 -0.24,0.43 -0.34,0.66z"/>
      <path class="fil7" d="M1196.12 755.19c-1.29,0.52 -2.58,1.39 -2.98,2.73 -0.22,0.76 -0.13,1.6 0.13,2.35 0.86,2.51 3.5,4.19 6.15,4.23 0.85,0.01 1.71,-0.13 2.48,-0.51 1.64,-0.82 2.56,-2.61 3.06,-4.37 0.54,-1.91 0.52,-4.28 -1.69,-4.88 -2.31,-0.63 -4.94,-0.43 -7.15,0.45z"/>
      <path class="fil4 str2" d="M1187.51 742.76c5.82,-0.15 13.29,2.16 16.53,7.21 2.87,4.47 2.77,10.94 -0.76,13.54 -5.95,4.38 -12.91,-0.77 -11.36,-8.69 0.43,-2.2 2.64,-6.51 7.82,-8.89"/>
      <g>
       <path class="fil4 str2" d="M1353.03 736.3c-1.98,-2.87 -7.93,-6.39 -15.02,-6.34 -7.09,0.04 -14.25,4.23 -18.29,10.7"/>
       <path class="fil4 str2" d="M1339.5 741.01c-1.47,-2.09 -7.07,-7.99 -14.93,-5.89"/>
      </g>
      <g>
       <path class="fil1" d="M1281.53 811.28c-27.73,14.69 -62.58,16.53 -96.26,8.61 12.05,12.94 52.62,24.25 93.94,16.6l2.32 -25.21z"/>
      </g>
     </g>
    </g>
    <g>
     <path class="fil2" d="M1354.83 917.64c41.84,24.41 61.23,69.96 60.54,136.51 -0.41,39.46 -1.5,100.43 0.22,123 2.07,27.15 17.42,101.11 32.04,172.03 5.48,26.54 9.83,37.51 17.82,45.18 16.48,15.81 54.9,21.79 74.8,30.24 13.56,5.77 39.78,17.55 54.98,26.4 10.47,6.09 9.12,19.4 -4.16,22.22 -2.04,7.83 -9.89,10.08 -22.08,7.41 -12.54,6.44 -29.25,1.99 -46.85,0.67 -17.61,-1.32 -42.38,-5.18 -42.38,-5.18 0,0 0,9.02 -3.88,12.88 -3.88,3.87 -11.93,2.9 -21.18,-3.86 -9.25,-6.77 -21.78,-7.61 -28.04,-8.9 -3.6,-0.74 -18.22,-2 -27.28,-14.4 -6.72,-9.19 -5.76,-21.74 -13.08,-45.46 -7.33,-23.72 -68.85,-153.16 -75.44,-172.51 -11.87,-34.88 -14.72,-89.69 -15.61,-127.38 -0.9,-37.68 59.58,-198.85 59.58,-198.85z"/>
     <path class="fil3 str0" d="M1354.19 913.68c19.62,9.38 41.25,27.59 51.1,73.49 8.88,41.4 16.11,172.98 16.11,172.98 0,0 -18.75,23.9 -66.69,32.38 -47.95,8.47 -77.89,-2.9 -77.89,-2.9l0 -98.09 77.37 -177.86z"/>
     <g>
      <path class="fil4 str2" d="M1441.62 1440.85c9.84,8.35 21.2,14.86 30.26,24.21 3.49,3.61 6.39,8.05 7.54,13.12"/>
      <path class="fil4 str2" d="M1503.29 1446.35c13.73,3.93 27.45,7.85 41.18,11.77 5.24,1.5 10.49,3 15.44,5.07 3.19,1.33 6.32,2.97 8.32,5.72 2.01,2.75 2.68,6.85 0.81,10.48"/>
      <path class="fil4 str2" d="M1523.98 1436.46c10.14,3.33 20.25,6.79 30.31,10.37 9.65,3.43 19.33,7.01 28.2,12.35 2.36,1.42 4.7,3 6.47,5.2 1.77,2.2 2.93,5.13 2.57,8.02"/>
     </g>
    </g>
    <g>
     <g>
      <path class="fil5" d="M1310.91 1385.23c-3.55,16.88 -10.84,49.01 -16.72,75.47 -69.91,10.96 -150.35,17.24 -235.92,17.24 -32.18,0 -63.6,-0.87 -94.01,-2.57l3.59 -176.14 343.06 86z"/>
     </g>
     <g>
      <path class="fil5" d="M1215.57 1361.37c-1.98,40.82 -7.81,81.15 -13.22,110.41 -45.54,4.03 -93.92,6.16 -144.08,6.16 -67.82,0 -132.45,-3.95 -191.13,-11.01 8.76,-98.72 46.54,-184.09 47.12,-185.49l301.31 79.93z"/>
      <path class="fil4 str2" d="M929.86 1339.09c-14.85,37.34 -25.24,90.51 -28.82,131.51"/>
      <path class="fil4 str2" d="M1012.16 1373.36c-6.28,34.52 -10,68.56 -11.12,103.63"/>
      <path class="fil4 str2" d="M1221.63 1362.86c-4.58,39.73 -12.11,79.74 -18.52,108.9"/>
     </g>
     <path class="fil4 str2" d="M867.14 1466.94c58.69,7.09 123.29,11.01 191.13,11.01 85.58,0 166.01,-6.24 235.93,-17.21"/>
    </g>
    <g>
     <path class="fil3 str0" d="M1290.6 886.57c-17.22,47.18 -113.45,24.68 -157.92,-32.07l-130.37 13.89c0,0 -54.34,48.49 -55.68,175.9 -1.18,111.34 -7.09,137 -17.36,179.81 -6.5,27.07 -29.55,83.28 -29.55,83.28 0,0 30.96,61.62 108.95,94.66 99.56,42.18 237.82,35.7 304.37,-12.67 14.12,-58.12 22.64,-114.08 41.67,-217.37 32.5,-176.42 22.11,-223.21 -0.52,-258.32 0,0 -35.54,-15.38 -63.59,-27.11z"/>
     <path class="fil7" d="M1193.39 1184.89c-15.47,-1.34 -30.89,-3.05 -46.27,-5.08 -53.83,-7.38 -107.41,-18.7 -159.24,-35.02 -13.28,-4.18 -26.4,-8.84 -39.26,-14.17 -1.54,-0.66 -3.06,-1.36 -4.59,-2.04 -0.79,12.6 -1.74,23.35 -2.86,32.9 6.78,2.77 13.63,5.36 20.52,7.8 30.1,10.63 61.17,18.73 92.3,25.71 33.22,7.44 66.79,13.12 100.56,17.34 32.84,4.11 65.87,6.62 98.95,7.52 30.95,0.84 61.93,0.21 92.83,-1.78 1.81,-10.11 3.74,-20.74 5.78,-31.93 -52.84,3.69 -105.95,3.31 -158.72,-1.25zm27.19 -101.62l0 0c-15.46,-1.33 -30.89,-3.05 -46.27,-5.08 -53.82,-7.37 -107.4,-18.69 -159.24,-35.01 -13.27,-4.19 -26.4,-8.84 -39.25,-14.18 -9.51,-4.09 -18.84,-8.6 -27.89,-13.59 -0.72,9.15 -1.2,18.74 -1.3,28.88 -0.03,2.01 -0.05,3.94 -0.08,5.89 13.75,6.67 27.96,12.41 42.33,17.48 30.1,10.64 61.17,18.74 92.3,25.72 33.22,7.44 66.79,13.11 100.57,17.34 32.83,4.1 65.87,6.61 98.95,7.51 27.8,0.76 55.63,0.31 83.41,-1.22 1.75,-11.21 3.29,-21.83 4.61,-31.77 -49.35,2.93 -98.89,2.29 -148.14,-1.97z"/>
     <path class="fil4 str2" d="M1290.6 886.57c-17.22,47.18 -113.45,24.68 -157.92,-32.07"/>
     <line class="fil4 str2" x1="1132.68" y1="854.5" x2="1002.31" y2= "868.39" />
     <path class="fil4 str2" d="M1002.31 868.39c0,0 -54.34,48.49 -55.68,175.9 -1.18,111.34 -7.09,137 -17.36,179.81 -6.5,27.07 -29.55,83.28 -29.55,83.28 0,0 30.96,61.62 108.95,94.66 99.56,42.18 237.82,35.7 304.37,-12.67 14.12,-58.12 22.64,-114.08 41.67,-217.37 32.5,-176.42 22.11,-223.21 -0.52,-258.32 0,0 -35.54,-15.38 -63.59,-27.11"/>
     <path class="fil4 str2" d="M1305.95 893.32c-9.09,55.71 -134.73,60.45 -199.33,-36.04"/>
    </g>
    <g>
     <path class="fil2" d="M842.43 1451.06c-1.27,13.7 -0.48,21.91 3.33,28.1 17.85,5.58 18.02,9.23 29.47,11.83 11.45,2.6 28.81,6.63 53.94,14.4 22.09,6.82 30.8,5.78 35.56,12.14 4.77,6.35 -2.7,19.24 -27.06,19.77 -24.35,0.53 -34.75,-0.9 -34.75,-0.9 0,0 19.23,15.18 26.65,22.59 7.41,7.41 -2.29,19.3 -13.57,18.35 -16.48,-1.39 -26.69,-10.44 -46.43,-25.05 11.39,19.11 17.81,31.39 2.64,34.94 -12.84,3.01 -22.66,-8.61 -29.55,-17.09 -6.88,-8.47 -20.75,-28.97 -20.75,-28.97 0,0 7.29,19.92 9.38,34.54 2.01,14.04 -19.19,23.32 -27.33,4.62 -2.85,-6.54 -5.16,-17.12 -7.03,-20.26 -2.31,-3.88 -12.02,-2.69 -17.7,0.61 -6.55,3.8 -18.49,12.71 -34.09,20.73 -12.28,6.31 -22.24,4.76 -26.48,1.59 -4.23,-3.18 -5.29,-10.59 6.36,-20.12 11.65,-9.53 22.04,-19.39 27.95,-25.84 -2.63,-7.77 1.65,-22.08 -0.42,-42.79 -1.98,-19.77 -19.43,-172.02 -25.68,-243.02 -5.92,-67.23 3.23,-88.21 21.51,-110.8 17.28,-21.34 52.3,-59.78 93.6,-114.03 41.28,-54.25 90.39,-114.32 158.11,-150.92 36.59,43.14 12.18,183.97 -12.89,227.84l-128.73 129.62c0,0 -14.45,200.97 -16.04,218.12z"/>
     <path class="fil4 str2" d="M870.18 1512.21c9.94,11.79 22.61,18.02 36.92,27.16"/>
     <path class="fil4 str2" d="M884.47 1516.75c2.37,6.35 6.59,11.99 12.01,16.05"/>
     <path class="fil4 str2" d="M847.96 1524.69c9.04,11.81 18.75,23.11 29.07,33.83"/>
     <line class="fil4 str2" x1="817.47" y1="1531.75" x2="825.27" y2= "1548.23" />
     <path class="fil4 str2" d="M786.83 1541.99c2.15,0.01 4.14,1.3 5.49,2.97 1.35,1.68 2.14,3.72 2.87,5.75 1.8,5 3.27,10.11 4.41,15.3"/>
     <path class="fil4 str2" d="M805.34 1482.66c8.85,-3.38 18.31,-5.27 27.78,-5.08 9.46,0.2 21.12,0.23 29.37,4.86"/>
     <path class="fil4 str2" d="M758.95 1529.27c-4.81,6.76 -9.31,11.97 -15.4,17.6"/>
     <g>
      <path class="fil4 str2" d="M847.54 1202.47c8.31,11.45 10.93,30.47 10.93,43.25"/>
     </g>
     <path class="fil3 str0" d="M1002.31 868.39c-25.7,3.91 -56.99,15.2 -95.55,65.43 -38.56,50.24 -101.42,124.15 -101.42,124.15 0,0 -0.64,26.9 32.58,70.71 29.39,38.76 75.33,57.79 75.33,57.79 0,0 19.77,-17.46 60.01,-56.01 40.23,-38.56 96.66,-192.22 29.05,-262.07z"/>
    </g>
   </g>
  </g>
 </g>
 <g id="Text">
  <metadata id="CorelCorpID_2Corel-Layer"/>
  <g id="_2089305047232">
   <path class="fil0" d="M1056.03 696.03l0 -62.86 -52.32 0 0 62.86 -65.17 0 87.81 -162.42 -58.56 0 -90.81 172.16c-1.9,3.6 -2.89,7.61 -2.89,11.68 0,13.83 11.2,25.04 25.03,25.04l104.59 0 0 38.33c0,14.33 11.04,26.82 25.35,27.25 14.82,0.44 26.97,-11.43 26.97,-26.15l0 -39.43 34.36 0 0 -46.46 -34.36 0z"/>
   <path class="fil0" d="M1582.43 701.4l0 -62.86 -52.32 0 0 62.86 -65.17 0 87.82 -162.42 -58.57 0 -90.81 172.16c-1.9,3.6 -2.89,7.61 -2.89,11.68 0,13.83 11.21,25.04 25.04,25.04l104.58 0 0 38.34c0,14.32 11.04,26.81 25.36,27.24 14.82,0.45 26.96,-11.43 26.96,-26.15l0 -39.43 34.36 0 0 -46.46 -34.36 0z"/>
   <g>
    <path class="fil1" d="M919.89 433.37l0 -132.65 29.04 0 0 150.09 -11.6 0c-9.63,0 -17.44,-7.81 -17.44,-17.44zm21.35 -107.03l0 0 0 -25.62 69.61 0c6.83,0 12.38,5.54 12.38,12.38l0 0.85c0,6.84 -5.55,12.39 -12.38,12.39l-69.61 0zm0 60.21l0 0 0 -24.77 63.2 0c6.84,0 12.38,5.55 12.38,12.38 0,6.84 -5.54,12.39 -12.38,12.39l-63.2 0zm0 64.26l0 0 0 -25.61 70.67 0c6.84,0 12.39,5.54 12.39,12.38l0 0.85c0,6.84 -5.55,12.38 -12.39,12.38l-70.67 0z"/>
    <path class="fil1" d="M1048.42 437.07l0 -136.35 29.04 0 0 136.35c0,7.59 -6.15,13.74 -13.74,13.74l-1.56 0c-7.59,0 -13.74,-6.15 -13.74,-13.74zm21.35 -49.03l0 0 0 -22.63 34.8 0c7.12,0 12.64,-1.81 16.55,-5.44 3.91,-3.63 5.87,-8.65 5.87,-15.06 0,-5.83 -1.96,-10.71 -5.87,-14.62 -3.91,-3.91 -9.43,-5.87 -16.55,-5.87l-34.8 0 0 -23.7 37.37 0c9.68,0 18.18,1.88 25.51,5.65 7.33,3.78 13.02,8.94 17.08,15.49 4.06,6.55 6.09,14.08 6.09,22.63 0,8.83 -2.03,16.47 -6.09,22.95 -4.06,6.48 -9.79,11.53 -17.18,15.16 -7.41,3.63 -16.02,5.44 -25.84,5.44l-36.94 0zm56.51 57.37l0 0 -45.4 -59.5 26.68 -8.33 40.41 50.96c7.15,9 0.73,22.27 -10.76,22.27 -4.29,0 -8.33,-1.99 -10.93,-5.4z"/>
    <path class="fil1" d="M1182.08 437.07l0 -136.35 29.04 0 0 136.35c0,7.59 -6.15,13.74 -13.74,13.74l-1.56 0c-7.59,0 -13.74,-6.15 -13.74,-13.74zm21.35 -49.03l0 0 0 -22.63 34.8 0c7.12,0 12.63,-1.81 16.55,-5.44 3.91,-3.63 5.87,-8.65 5.87,-15.06 0,-5.83 -1.96,-10.71 -5.87,-14.62 -3.92,-3.91 -9.43,-5.87 -16.55,-5.87l-34.8 0 0 -23.7 37.37 0c9.67,0 18.18,1.88 25.51,5.65 7.33,3.78 13.02,8.94 17.08,15.49 4.06,6.55 6.09,14.08 6.09,22.63 0,8.83 -2.03,16.47 -6.09,22.95 -4.06,6.48 -9.79,11.53 -17.19,15.16 -7.4,3.63 -16.01,5.44 -25.83,5.44l-36.94 0zm56.51 57.37l0 0 -45.41 -59.5 26.69 -8.33 40.41 50.96c7.14,9 0.73,22.27 -10.76,22.27 -4.29,0 -8.33,-1.99 -10.93,-5.4z"/>
    <path class="fil1" d="M1384.91 453.16c-10.96,0 -21.17,-1.99 -30.64,-5.98 -9.46,-3.98 -17.72,-9.5 -24.76,-16.54 -7.05,-7.05 -12.57,-15.3 -16.55,-24.77 -3.99,-9.46 -5.98,-19.61 -5.98,-30.42 0,-10.82 1.96,-20.89 5.87,-30.22 3.92,-9.32 9.4,-17.5 16.44,-24.55 7.05,-7.05 15.27,-12.52 24.66,-16.44 9.4,-3.91 19.57,-5.87 30.54,-5.87 11.1,0 21.35,1.96 30.74,5.87 9.39,3.92 17.61,9.39 24.66,16.44 7.04,7.05 12.56,15.26 16.55,24.66 3.98,9.4 5.98,19.5 5.98,30.32 0,10.82 -2,20.92 -5.98,30.32 -3.99,9.39 -9.51,17.61 -16.55,24.66 -7.05,7.04 -15.23,12.56 -24.55,16.54 -9.33,3.99 -19.47,5.98 -30.43,5.98zm-0.42 -27.11l0 0c9.67,0 18.07,-2.14 25.19,-6.41 7.11,-4.27 12.7,-10.17 16.76,-17.72 4.06,-7.54 6.09,-16.37 6.09,-26.47 0,-7.4 -1.15,-14.17 -3.42,-20.29 -2.28,-6.11 -5.55,-11.42 -9.82,-15.9 -4.27,-4.49 -9.33,-7.94 -15.16,-10.36 -5.84,-2.42 -12.39,-3.63 -19.64,-3.63 -9.4,0 -17.69,2.1 -24.88,6.3 -7.19,4.2 -12.81,10.07 -16.87,17.61 -4.05,7.55 -6.08,16.3 -6.08,26.27 0,7.54 1.17,14.45 3.52,20.71 2.35,6.26 5.62,11.6 9.82,16.01 4.2,4.42 9.26,7.83 15.16,10.25 5.91,2.42 12.35,3.63 19.33,3.63z"/>
    <path class="fil1" d="M1485.47 437.07l0 -136.35 29.04 0 0 136.35c0,7.59 -6.15,13.74 -13.74,13.74l-1.56 0c-7.58,0 -13.74,-6.15 -13.74,-13.74zm21.36 -49.03l0 0 0 -22.63 34.8 0c7.11,0 12.63,-1.81 16.54,-5.44 3.92,-3.63 5.88,-8.65 5.88,-15.06 0,-5.83 -1.96,-10.71 -5.88,-14.62 -3.91,-3.91 -9.43,-5.87 -16.54,-5.87l-34.8 0 0 -23.7 37.36 0c9.68,0 18.18,1.88 25.51,5.65 7.33,3.78 13.03,8.94 17.08,15.49 4.06,6.55 6.09,14.08 6.09,22.63 0,8.83 -2.03,16.47 -6.09,22.95 -4.05,6.48 -9.78,11.53 -17.18,15.16 -7.41,3.63 -16.02,5.44 -25.84,5.44l-36.93 0zm56.51 57.37l0 0 -45.41 -59.5 26.68 -8.33 40.42 50.96c7.14,9 0.72,22.27 -10.77,22.27 -4.28,0 -8.32,-1.99 -10.92,-5.4z"/>
   </g>
  </g>
 </g>
</svg>
